# Tiled2Unity generated file. Do not modify by hand.
# Wavefront file for 'untitled_mesh_0037.obj'

# Vertices (Count = 28)
v -27 -25 0
v -28 -25 0
v -28 -24 0
v -27 -24 0
v -26 -25 0
v -27 -25 0
v -27 -24 0
v -26 -24 0
v -25 -25 0
v -26 -25 0
v -26 -24 0
v -25 -24 0
v -23 -25 0
v -24 -25 0
v -24 -24 0
v -23 -24 0
v -29 -36 0
v -30 -36 0
v -30 -35 0
v -29 -35 0
v -28 -36 0
v -29 -36 0
v -29 -35 0
v -28 -35 0
v -27 -36 0
v -28 -36 0
v -28 -35 0
v -27 -35 0

# Texture cooridinates (Count = 4)
vt 0 0
vt 1 0
vt 1 1
vt 0 1

# Normal
vn 0 0 -1

# Mesh description
g untitled_mesh_0037

# Faces
f 1/1/1 2/2/1 3/3/1 4/4/1
f 5/1/1 6/2/1 7/3/1 8/4/1
f 9/1/1 10/2/1 11/3/1 12/4/1
f 13/1/1 14/2/1 15/3/1 16/4/1
f 17/1/1 18/2/1 19/3/1 20/4/1
f 21/1/1 22/2/1 23/3/1 24/4/1
f 25/1/1 26/2/1 27/3/1 28/4/1

