# Tiled2Unity generated file. Do not modify by hand.
# Wavefront file for 'untitled_mesh_0015.obj'

# Vertices (Count = 224)
v -45 -1 0
v -46 -1 0
v -46 0.125 0
v -45 0.125 0
v -1 -2 0
v -2 -2 0
v -2 -0.875 0
v -1 -0.875 0
v -44 -3 0
v -45 -3 0
v -45 -1.875 0
v -44 -1.875 0
v -31 -3 0
v -32 -3 0
v -32 -1.875 0
v -31 -1.875 0
v -45 -4 0
v -46 -4 0
v -46 -2.875 0
v -45 -2.875 0
v -6 -4 0
v -7 -4 0
v -7 -2.875 0
v -6 -2.875 0
v -2 -4 0
v -3 -4 0
v -3 -2.875 0
v -2 -2.875 0
v -47 -5 0
v -48 -5 0
v -48 -3.875 0
v -47 -3.875 0
v -5 -5 0
v -6 -5 0
v -6 -3.875 0
v -5 -3.875 0
v -3 -5 0
v -4 -5 0
v -4 -3.875 0
v -3 -3.875 0
v -6 -6 0
v -7 -6 0
v -7 -4.875 0
v -6 -4.875 0
v -2 -7 0
v -3 -7 0
v -3 -5.875 0
v -2 -5.875 0
v -33 -9 0
v -34 -9 0
v -34 -7.875 0
v -33 -7.875 0
v -2 -10 0
v -3 -10 0
v -3 -8.875 0
v -2 -8.875 0
v -16 -11 0
v -17 -11 0
v -17 -9.875 0
v -16 -9.875 0
v -47 -14 0
v -48 -14 0
v -48 -12.875 0
v -47 -12.875 0
v -15 -23 0
v -16 -23 0
v -16 -21.875 0
v -15 -21.875 0
v -19 -30 0
v -20 -30 0
v -20 -28.875 0
v -19 -28.875 0
v -49 -32 0
v -50 -32 0
v -50 -30.875 0
v -49 -30.875 0
v -19 -32 0
v -20 -32 0
v -20 -30.875 0
v -19 -30.875 0
v -1 -37 0
v -2 -37 0
v -2 -35.875 0
v -1 -35.875 0
v -45 -40 0
v -46 -40 0
v -46 -38.875 0
v -45 -38.875 0
v -34 -40 0
v -35 -40 0
v -35 -38.875 0
v -34 -38.875 0
v -13 -40 0
v -14 -40 0
v -14 -38.875 0
v -13 -38.875 0
v -46 -41 0
v -47 -41 0
v -47 -39.875 0
v -46 -39.875 0
v -13 -41 0
v -14 -41 0
v -14 -39.875 0
v -13 -39.875 0
v -2 -41 0
v -3 -41 0
v -3 -39.875 0
v -2 -39.875 0
v -47 -42 0
v -48 -42 0
v -48 -40.875 0
v -47 -40.875 0
v -2 -42 0
v -3 -42 0
v -3 -40.875 0
v -2 -40.875 0
v 0 -42 0
v -1 -42 0
v -1 -40.875 0
v 0 -40.875 0
v -45 -43 0
v -46 -43 0
v -46 -41.875 0
v -45 -41.875 0
v -44 -43 0
v -45 -43 0
v -45 -41.875 0
v -44 -41.875 0
v -43 -43 0
v -44 -43 0
v -44 -41.875 0
v -43 -41.875 0
v -4 -44 0
v -5 -44 0
v -5 -42.875 0
v -4 -42.875 0
v -3 -44 0
v -4 -44 0
v -4 -42.875 0
v -3 -42.875 0
v -46 -45 0
v -47 -45 0
v -47 -43.875 0
v -46 -43.875 0
v -3 -45 0
v -4 -45 0
v -4 -43.875 0
v -3 -43.875 0
v -2 -45 0
v -3 -45 0
v -3 -43.875 0
v -2 -43.875 0
v -1 -45 0
v -2 -45 0
v -2 -43.875 0
v -1 -43.875 0
v -43 -46 0
v -44 -46 0
v -44 -44.875 0
v -43 -44.875 0
v -1 -46 0
v -2 -46 0
v -2 -44.875 0
v -1 -44.875 0
v -48 -47 0
v -49 -47 0
v -49 -45.875 0
v -48 -45.875 0
v -41 -47 0
v -42 -47 0
v -42 -45.875 0
v -41 -45.875 0
v -40 -47 0
v -41 -47 0
v -41 -45.875 0
v -40 -45.875 0
v -37 -47 0
v -38 -47 0
v -38 -45.875 0
v -37 -45.875 0
v -5 -47 0
v -6 -47 0
v -6 -45.875 0
v -5 -45.875 0
v -47 -48 0
v -48 -48 0
v -48 -46.875 0
v -47 -46.875 0
v -44 -48 0
v -45 -48 0
v -45 -46.875 0
v -44 -46.875 0
v -14 -48 0
v -15 -48 0
v -15 -46.875 0
v -14 -46.875 0
v -45 -49 0
v -46 -49 0
v -46 -47.875 0
v -45 -47.875 0
v -35 -50 0
v -36 -50 0
v -36 -48.875 0
v -35 -48.875 0
v -18 -50 0
v -19 -50 0
v -19 -48.875 0
v -18 -48.875 0
v -8 -50 0
v -9 -50 0
v -9 -48.875 0
v -8 -48.875 0
v -5 -50 0
v -6 -50 0
v -6 -48.875 0
v -5 -48.875 0
v -2 -50 0
v -3 -50 0
v -3 -48.875 0
v -2 -48.875 0
v 0 -50 0
v -1 -50 0
v -1 -48.875 0
v 0 -48.875 0

# Texture cooridinates (Count = 4)
vt 0 0
vt 1 0
vt 1 1
vt 0 1

# Normal
vn 0 0 -1

# Mesh description
g untitled_mesh_0015

# Faces
f 1/1/1 2/2/1 3/3/1 4/4/1
f 5/1/1 6/2/1 7/3/1 8/4/1
f 9/1/1 10/2/1 11/3/1 12/4/1
f 13/1/1 14/2/1 15/3/1 16/4/1
f 17/1/1 18/2/1 19/3/1 20/4/1
f 21/1/1 22/2/1 23/3/1 24/4/1
f 25/1/1 26/2/1 27/3/1 28/4/1
f 29/1/1 30/2/1 31/3/1 32/4/1
f 33/1/1 34/2/1 35/3/1 36/4/1
f 37/1/1 38/2/1 39/3/1 40/4/1
f 41/1/1 42/2/1 43/3/1 44/4/1
f 45/1/1 46/2/1 47/3/1 48/4/1
f 49/1/1 50/2/1 51/3/1 52/4/1
f 53/1/1 54/2/1 55/3/1 56/4/1
f 57/1/1 58/2/1 59/3/1 60/4/1
f 61/1/1 62/2/1 63/3/1 64/4/1
f 65/1/1 66/2/1 67/3/1 68/4/1
f 69/1/1 70/2/1 71/3/1 72/4/1
f 73/1/1 74/2/1 75/3/1 76/4/1
f 77/1/1 78/2/1 79/3/1 80/4/1
f 81/1/1 82/2/1 83/3/1 84/4/1
f 85/1/1 86/2/1 87/3/1 88/4/1
f 89/1/1 90/2/1 91/3/1 92/4/1
f 93/1/1 94/2/1 95/3/1 96/4/1
f 97/1/1 98/2/1 99/3/1 100/4/1
f 101/1/1 102/2/1 103/3/1 104/4/1
f 105/1/1 106/2/1 107/3/1 108/4/1
f 109/1/1 110/2/1 111/3/1 112/4/1
f 113/1/1 114/2/1 115/3/1 116/4/1
f 117/1/1 118/2/1 119/3/1 120/4/1
f 121/1/1 122/2/1 123/3/1 124/4/1
f 125/1/1 126/2/1 127/3/1 128/4/1
f 129/1/1 130/2/1 131/3/1 132/4/1
f 133/1/1 134/2/1 135/3/1 136/4/1
f 137/1/1 138/2/1 139/3/1 140/4/1
f 141/1/1 142/2/1 143/3/1 144/4/1
f 145/1/1 146/2/1 147/3/1 148/4/1
f 149/1/1 150/2/1 151/3/1 152/4/1
f 153/1/1 154/2/1 155/3/1 156/4/1
f 157/1/1 158/2/1 159/3/1 160/4/1
f 161/1/1 162/2/1 163/3/1 164/4/1
f 165/1/1 166/2/1 167/3/1 168/4/1
f 169/1/1 170/2/1 171/3/1 172/4/1
f 173/1/1 174/2/1 175/3/1 176/4/1
f 177/1/1 178/2/1 179/3/1 180/4/1
f 181/1/1 182/2/1 183/3/1 184/4/1
f 185/1/1 186/2/1 187/3/1 188/4/1
f 189/1/1 190/2/1 191/3/1 192/4/1
f 193/1/1 194/2/1 195/3/1 196/4/1
f 197/1/1 198/2/1 199/3/1 200/4/1
f 201/1/1 202/2/1 203/3/1 204/4/1
f 205/1/1 206/2/1 207/3/1 208/4/1
f 209/1/1 210/2/1 211/3/1 212/4/1
f 213/1/1 214/2/1 215/3/1 216/4/1
f 217/1/1 218/2/1 219/3/1 220/4/1
f 221/1/1 222/2/1 223/3/1 224/4/1

