# Tiled2Unity generated file. Do not modify by hand.
# Wavefront file for 'untitled_mesh_0027.obj'

# Vertices (Count = 32)
v -34 -8 0
v -35 -8 0
v -35 -6.46875 0
v -34 -6.46875 0
v -17 -13 0
v -18 -13 0
v -18 -11.46875 0
v -17 -11.46875 0
v -16 -13 0
v -17 -13 0
v -17 -11.46875 0
v -16 -11.46875 0
v -28 -14 0
v -29 -14 0
v -29 -12.46875 0
v -28 -12.46875 0
v -13 -23 0
v -14 -23 0
v -14 -21.46875 0
v -13 -21.46875 0
v -38 -32 0
v -39 -32 0
v -39 -30.46875 0
v -38 -30.46875 0
v -35 -38 0
v -36 -38 0
v -36 -36.46875 0
v -35 -36.46875 0
v -33 -41 0
v -34 -41 0
v -34 -39.46875 0
v -33 -39.46875 0

# Texture cooridinates (Count = 4)
vt 0 0
vt 1 0
vt 1 1
vt 0 1

# Normal
vn 0 0 -1

# Mesh description
g untitled_mesh_0027

# Faces
f 1/1/1 2/2/1 3/3/1 4/4/1
f 5/1/1 6/2/1 7/3/1 8/4/1
f 9/1/1 10/2/1 11/3/1 12/4/1
f 13/1/1 14/2/1 15/3/1 16/4/1
f 17/1/1 18/2/1 19/3/1 20/4/1
f 21/1/1 22/2/1 23/3/1 24/4/1
f 25/1/1 26/2/1 27/3/1 28/4/1
f 29/1/1 30/2/1 31/3/1 32/4/1

