# Tiled2Unity generated file. Do not modify by hand.
# Wavefront file for 'untitled_mesh_0008.obj'

# Vertices (Count = 108)
v -12 -1 0
v -13 -1 0
v -13 0 0
v -12 0 0
v -10 -1 0
v -11 -1 0
v -11 0 0
v -10 0 0
v -9 -1 0
v -10 -1 0
v -10 0 0
v -9 0 0
v -19 -2 0
v -20 -2 0
v -20 -1 0
v -19 -1 0
v -10 -2 0
v -11 -2 0
v -11 -1 0
v -10 -1 0
v -18 -3 0
v -19 -3 0
v -19 -2 0
v -18 -2 0
v -11 -3 0
v -12 -3 0
v -12 -2 0
v -11 -2 0
v -10 -4 0
v -11 -4 0
v -11 -3 0
v -10 -3 0
v 0 -16 0
v -1 -16 0
v -1 -15 0
v 0 -15 0
v -2 -17 0
v -3 -17 0
v -3 -16 0
v -2 -16 0
v -49 -18 0
v -50 -18 0
v -50 -17 0
v -49 -17 0
v -48 -18 0
v -49 -18 0
v -49 -17 0
v -48 -17 0
v -2 -18 0
v -3 -18 0
v -3 -17 0
v -2 -17 0
v -1 -18 0
v -2 -18 0
v -2 -17 0
v -1 -17 0
v -48 -19 0
v -49 -19 0
v -49 -18 0
v -48 -18 0
v -3 -19 0
v -4 -19 0
v -4 -18 0
v -3 -18 0
v -3 -20 0
v -4 -20 0
v -4 -19 0
v -3 -19 0
v -1 -20 0
v -2 -20 0
v -2 -19 0
v -1 -19 0
v -1 -26 0
v -2 -26 0
v -2 -25 0
v -1 -25 0
v -2 -27 0
v -3 -27 0
v -3 -26 0
v -2 -26 0
v -49 -28 0
v -50 -28 0
v -50 -27 0
v -49 -27 0
v -2 -28 0
v -3 -28 0
v -3 -27 0
v -2 -27 0
v -1 -30 0
v -2 -30 0
v -2 -29 0
v -1 -29 0
v 0 -30 0
v -1 -30 0
v -1 -29 0
v 0 -29 0
v -31 -48 0
v -32 -48 0
v -32 -47 0
v -31 -47 0
v -32 -49 0
v -33 -49 0
v -33 -48 0
v -32 -48 0
v -32 -50 0
v -33 -50 0
v -33 -49 0
v -32 -49 0

# Texture cooridinates (Count = 4)
vt 0 0
vt 1 0
vt 1 1
vt 0 1

# Normal
vn 0 0 -1

# Mesh description
g untitled_mesh_0008

# Faces
f 1/1/1 2/2/1 3/3/1 4/4/1
f 5/1/1 6/2/1 7/3/1 8/4/1
f 9/1/1 10/2/1 11/3/1 12/4/1
f 13/1/1 14/2/1 15/3/1 16/4/1
f 17/1/1 18/2/1 19/3/1 20/4/1
f 21/1/1 22/2/1 23/3/1 24/4/1
f 25/1/1 26/2/1 27/3/1 28/4/1
f 29/1/1 30/2/1 31/3/1 32/4/1
f 33/1/1 34/2/1 35/3/1 36/4/1
f 37/1/1 38/2/1 39/3/1 40/4/1
f 41/1/1 42/2/1 43/3/1 44/4/1
f 45/1/1 46/2/1 47/3/1 48/4/1
f 49/1/1 50/2/1 51/3/1 52/4/1
f 53/1/1 54/2/1 55/3/1 56/4/1
f 57/1/1 58/2/1 59/3/1 60/4/1
f 61/1/1 62/2/1 63/3/1 64/4/1
f 65/1/1 66/2/1 67/3/1 68/4/1
f 69/1/1 70/2/1 71/3/1 72/4/1
f 73/1/1 74/2/1 75/3/1 76/4/1
f 77/1/1 78/2/1 79/3/1 80/4/1
f 81/1/1 82/2/1 83/3/1 84/4/1
f 85/1/1 86/2/1 87/3/1 88/4/1
f 89/1/1 90/2/1 91/3/1 92/4/1
f 93/1/1 94/2/1 95/3/1 96/4/1
f 97/1/1 98/2/1 99/3/1 100/4/1
f 101/1/1 102/2/1 103/3/1 104/4/1
f 105/1/1 106/2/1 107/3/1 108/4/1

