# Tiled2Unity generated file. Do not modify by hand.
# Wavefront file for 'untitled_mesh_0019.obj'

# Vertices (Count = 116)
v -20 -3 0
v -21 -3 0
v -21 -1.5 0
v -20 -1.5 0
v -8 -5 0
v -9 -5 0
v -9 -3.5 0
v -8 -3.5 0
v -4 -13 0
v -5 -13 0
v -5 -11.5 0
v -4 -11.5 0
v -3 -14 0
v -4 -14 0
v -4 -12.5 0
v -3 -12.5 0
v -3 -16 0
v -4 -16 0
v -4 -14.5 0
v -3 -14.5 0
v -48 -17 0
v -49 -17 0
v -49 -15.5 0
v -48 -15.5 0
v -34 -21 0
v -35 -21 0
v -35 -19.5 0
v -34 -19.5 0
v -32 -22 0
v -33 -22 0
v -33 -20.5 0
v -32 -20.5 0
v -32 -23 0
v -33 -23 0
v -33 -21.5 0
v -32 -21.5 0
v -14 -23 0
v -15 -23 0
v -15 -21.5 0
v -14 -21.5 0
v -48 -29 0
v -49 -29 0
v -49 -27.5 0
v -48 -27.5 0
v -29 -29 0
v -30 -29 0
v -30 -27.5 0
v -29 -27.5 0
v -28 -29 0
v -29 -29 0
v -29 -27.5 0
v -28 -27.5 0
v -38 -30 0
v -39 -30 0
v -39 -28.5 0
v -38 -28.5 0
v -27 -30 0
v -28 -30 0
v -28 -28.5 0
v -27 -28.5 0
v -2 -30 0
v -3 -30 0
v -3 -28.5 0
v -2 -28.5 0
v -47 -31 0
v -48 -31 0
v -48 -29.5 0
v -47 -29.5 0
v -19 -31 0
v -20 -31 0
v -20 -29.5 0
v -19 -29.5 0
v -20 -32 0
v -21 -32 0
v -21 -30.5 0
v -20 -30.5 0
v -18 -32 0
v -19 -32 0
v -19 -30.5 0
v -18 -30.5 0
v -2 -32 0
v -3 -32 0
v -3 -30.5 0
v -2 -30.5 0
v -3 -35 0
v -4 -35 0
v -4 -33.5 0
v -3 -33.5 0
v 0 -35 0
v -1 -35 0
v -1 -33.5 0
v 0 -33.5 0
v 0 -36 0
v -1 -36 0
v -1 -34.5 0
v 0 -34.5 0
v -34 -39 0
v -35 -39 0
v -35 -37.5 0
v -34 -37.5 0
v -34 -41 0
v -35 -41 0
v -35 -39.5 0
v -34 -39.5 0
v -36 -48 0
v -37 -48 0
v -37 -46.5 0
v -36 -46.5 0
v -34 -48 0
v -35 -48 0
v -35 -46.5 0
v -34 -46.5 0
v -35 -49 0
v -36 -49 0
v -36 -47.5 0
v -35 -47.5 0

# Texture cooridinates (Count = 4)
vt 0 0
vt 1 0
vt 1 1
vt 0 1

# Normal
vn 0 0 -1

# Mesh description
g untitled_mesh_0019

# Faces
f 1/1/1 2/2/1 3/3/1 4/4/1
f 5/1/1 6/2/1 7/3/1 8/4/1
f 9/1/1 10/2/1 11/3/1 12/4/1
f 13/1/1 14/2/1 15/3/1 16/4/1
f 17/1/1 18/2/1 19/3/1 20/4/1
f 21/1/1 22/2/1 23/3/1 24/4/1
f 25/1/1 26/2/1 27/3/1 28/4/1
f 29/1/1 30/2/1 31/3/1 32/4/1
f 33/1/1 34/2/1 35/3/1 36/4/1
f 37/1/1 38/2/1 39/3/1 40/4/1
f 41/1/1 42/2/1 43/3/1 44/4/1
f 45/1/1 46/2/1 47/3/1 48/4/1
f 49/1/1 50/2/1 51/3/1 52/4/1
f 53/1/1 54/2/1 55/3/1 56/4/1
f 57/1/1 58/2/1 59/3/1 60/4/1
f 61/1/1 62/2/1 63/3/1 64/4/1
f 65/1/1 66/2/1 67/3/1 68/4/1
f 69/1/1 70/2/1 71/3/1 72/4/1
f 73/1/1 74/2/1 75/3/1 76/4/1
f 77/1/1 78/2/1 79/3/1 80/4/1
f 81/1/1 82/2/1 83/3/1 84/4/1
f 85/1/1 86/2/1 87/3/1 88/4/1
f 89/1/1 90/2/1 91/3/1 92/4/1
f 93/1/1 94/2/1 95/3/1 96/4/1
f 97/1/1 98/2/1 99/3/1 100/4/1
f 101/1/1 102/2/1 103/3/1 104/4/1
f 105/1/1 106/2/1 107/3/1 108/4/1
f 109/1/1 110/2/1 111/3/1 112/4/1
f 113/1/1 114/2/1 115/3/1 116/4/1

