# Tiled2Unity generated file. Do not modify by hand.
# Wavefront file for 'untitled_mesh_0020.obj'

# Vertices (Count = 724)
v -32 -4 0
v -33 -4 0
v -33 -3 0
v -32 -3 0
v -19 -4 0
v -20 -4 0
v -20 -3 0
v -19 -3 0
v -34 -5 0
v -35 -5 0
v -35 -4 0
v -34 -4 0
v -22 -5 0
v -23 -5 0
v -23 -4 0
v -22 -4 0
v -16 -5 0
v -17 -5 0
v -17 -4 0
v -16 -4 0
v -41 -6 0
v -42 -6 0
v -42 -5 0
v -41 -5 0
v -29 -6 0
v -30 -6 0
v -30 -5 0
v -29 -5 0
v -27 -6 0
v -28 -6 0
v -28 -5 0
v -27 -5 0
v -26 -6 0
v -27 -6 0
v -27 -5 0
v -26 -5 0
v -31 -7 0
v -32 -7 0
v -32 -6 0
v -31 -6 0
v -16 -7 0
v -17 -7 0
v -17 -6 0
v -16 -6 0
v -13 -7 0
v -14 -7 0
v -14 -6 0
v -13 -6 0
v -11 -7 0
v -12 -7 0
v -12 -6 0
v -11 -6 0
v -15 -8 0
v -16 -8 0
v -16 -7 0
v -15 -7 0
v -14 -8 0
v -15 -8 0
v -15 -7 0
v -14 -7 0
v -11 -8 0
v -12 -8 0
v -12 -7 0
v -11 -7 0
v -44 -9 0
v -45 -9 0
v -45 -8 0
v -44 -8 0
v -43 -9 0
v -44 -9 0
v -44 -8 0
v -43 -8 0
v -23 -9 0
v -24 -9 0
v -24 -8 0
v -23 -8 0
v -45 -10 0
v -46 -10 0
v -46 -9 0
v -45 -9 0
v -33 -10 0
v -34 -10 0
v -34 -9 0
v -33 -9 0
v -19 -10 0
v -20 -10 0
v -20 -9 0
v -19 -9 0
v -15 -10 0
v -16 -10 0
v -16 -9 0
v -15 -9 0
v -14 -10 0
v -15 -10 0
v -15 -9 0
v -14 -9 0
v -36 -11 0
v -37 -11 0
v -37 -10 0
v -36 -10 0
v -33 -11 0
v -34 -11 0
v -34 -10 0
v -33 -10 0
v -32 -11 0
v -33 -11 0
v -33 -10 0
v -32 -10 0
v -31 -11 0
v -32 -11 0
v -32 -10 0
v -31 -10 0
v -27 -11 0
v -28 -11 0
v -28 -10 0
v -27 -10 0
v -19 -11 0
v -20 -11 0
v -20 -10 0
v -19 -10 0
v -10 -11 0
v -11 -11 0
v -11 -10 0
v -10 -10 0
v -23 -12 0
v -24 -12 0
v -24 -11 0
v -23 -11 0
v -8 -12 0
v -9 -12 0
v -9 -11 0
v -8 -11 0
v -7 -12 0
v -8 -12 0
v -8 -11 0
v -7 -11 0
v -42 -13 0
v -43 -13 0
v -43 -12 0
v -42 -12 0
v -35 -13 0
v -36 -13 0
v -36 -12 0
v -35 -12 0
v -23 -13 0
v -24 -13 0
v -24 -12 0
v -23 -12 0
v -21 -13 0
v -22 -13 0
v -22 -12 0
v -21 -12 0
v -19 -13 0
v -20 -13 0
v -20 -12 0
v -19 -12 0
v -40 -14 0
v -41 -14 0
v -41 -13 0
v -40 -13 0
v -33 -14 0
v -34 -14 0
v -34 -13 0
v -33 -13 0
v -18 -14 0
v -19 -14 0
v -19 -13 0
v -18 -13 0
v -12 -14 0
v -13 -14 0
v -13 -13 0
v -12 -13 0
v -33 -15 0
v -34 -15 0
v -34 -14 0
v -33 -14 0
v -32 -15 0
v -33 -15 0
v -33 -14 0
v -32 -14 0
v -22 -15 0
v -23 -15 0
v -23 -14 0
v -22 -14 0
v -9 -15 0
v -10 -15 0
v -10 -14 0
v -9 -14 0
v -46 -16 0
v -47 -16 0
v -47 -15 0
v -46 -15 0
v -22 -16 0
v -23 -16 0
v -23 -15 0
v -22 -15 0
v -9 -16 0
v -10 -16 0
v -10 -15 0
v -9 -15 0
v -46 -17 0
v -47 -17 0
v -47 -16 0
v -46 -16 0
v -43 -17 0
v -44 -17 0
v -44 -16 0
v -43 -16 0
v -26 -17 0
v -27 -17 0
v -27 -16 0
v -26 -16 0
v -23 -17 0
v -24 -17 0
v -24 -16 0
v -23 -16 0
v -19 -17 0
v -20 -17 0
v -20 -16 0
v -19 -16 0
v -17 -17 0
v -18 -17 0
v -18 -16 0
v -17 -16 0
v -13 -17 0
v -14 -17 0
v -14 -16 0
v -13 -16 0
v -5 -17 0
v -6 -17 0
v -6 -16 0
v -5 -16 0
v -36 -18 0
v -37 -18 0
v -37 -17 0
v -36 -17 0
v -34 -18 0
v -35 -18 0
v -35 -17 0
v -34 -17 0
v -28 -18 0
v -29 -18 0
v -29 -17 0
v -28 -17 0
v -23 -18 0
v -24 -18 0
v -24 -17 0
v -23 -17 0
v -10 -18 0
v -11 -18 0
v -11 -17 0
v -10 -17 0
v -45 -19 0
v -46 -19 0
v -46 -18 0
v -45 -18 0
v -37 -19 0
v -38 -19 0
v -38 -18 0
v -37 -18 0
v -18 -19 0
v -19 -19 0
v -19 -18 0
v -18 -18 0
v -29 -20 0
v -30 -20 0
v -30 -19 0
v -29 -19 0
v -8 -20 0
v -9 -20 0
v -9 -19 0
v -8 -19 0
v -45 -21 0
v -46 -21 0
v -46 -20 0
v -45 -20 0
v -44 -21 0
v -45 -21 0
v -45 -20 0
v -44 -20 0
v -38 -21 0
v -39 -21 0
v -39 -20 0
v -38 -20 0
v -36 -21 0
v -37 -21 0
v -37 -20 0
v -36 -20 0
v -31 -21 0
v -32 -21 0
v -32 -20 0
v -31 -20 0
v -21 -21 0
v -22 -21 0
v -22 -20 0
v -21 -20 0
v -15 -21 0
v -16 -21 0
v -16 -20 0
v -15 -20 0
v -8 -21 0
v -9 -21 0
v -9 -20 0
v -8 -20 0
v -40 -22 0
v -41 -22 0
v -41 -21 0
v -40 -21 0
v -25 -22 0
v -26 -22 0
v -26 -21 0
v -25 -21 0
v -16 -22 0
v -17 -22 0
v -17 -21 0
v -16 -21 0
v -6 -22 0
v -7 -22 0
v -7 -21 0
v -6 -21 0
v -41 -23 0
v -42 -23 0
v -42 -22 0
v -41 -22 0
v -37 -23 0
v -38 -23 0
v -38 -22 0
v -37 -22 0
v -45 -24 0
v -46 -24 0
v -46 -23 0
v -45 -23 0
v -42 -24 0
v -43 -24 0
v -43 -23 0
v -42 -23 0
v -38 -24 0
v -39 -24 0
v -39 -23 0
v -38 -23 0
v -31 -24 0
v -32 -24 0
v -32 -23 0
v -31 -23 0
v -18 -24 0
v -19 -24 0
v -19 -23 0
v -18 -23 0
v -11 -25 0
v -12 -25 0
v -12 -24 0
v -11 -24 0
v -28 -26 0
v -29 -26 0
v -29 -25 0
v -28 -25 0
v -18 -26 0
v -19 -26 0
v -19 -25 0
v -18 -25 0
v -5 -26 0
v -6 -26 0
v -6 -25 0
v -5 -25 0
v -42 -27 0
v -43 -27 0
v -43 -26 0
v -42 -26 0
v -41 -27 0
v -42 -27 0
v -42 -26 0
v -41 -26 0
v -21 -27 0
v -22 -27 0
v -22 -26 0
v -21 -26 0
v -7 -27 0
v -8 -27 0
v -8 -26 0
v -7 -26 0
v -5 -27 0
v -6 -27 0
v -6 -26 0
v -5 -26 0
v -42 -28 0
v -43 -28 0
v -43 -27 0
v -42 -27 0
v -34 -28 0
v -35 -28 0
v -35 -27 0
v -34 -27 0
v -33 -28 0
v -34 -28 0
v -34 -27 0
v -33 -27 0
v -19 -28 0
v -20 -28 0
v -20 -27 0
v -19 -27 0
v -18 -28 0
v -19 -28 0
v -19 -27 0
v -18 -27 0
v -9 -28 0
v -10 -28 0
v -10 -27 0
v -9 -27 0
v -30 -29 0
v -31 -29 0
v -31 -28 0
v -30 -28 0
v -18 -29 0
v -19 -29 0
v -19 -28 0
v -18 -28 0
v -3 -29 0
v -4 -29 0
v -4 -28 0
v -3 -28 0
v -45 -30 0
v -46 -30 0
v -46 -29 0
v -45 -29 0
v -33 -30 0
v -34 -30 0
v -34 -29 0
v -33 -29 0
v -8 -30 0
v -9 -30 0
v -9 -29 0
v -8 -29 0
v -36 -31 0
v -37 -31 0
v -37 -30 0
v -36 -30 0
v -33 -31 0
v -34 -31 0
v -34 -30 0
v -33 -30 0
v -4 -31 0
v -5 -31 0
v -5 -30 0
v -4 -30 0
v -39 -32 0
v -40 -32 0
v -40 -31 0
v -39 -31 0
v -33 -32 0
v -34 -32 0
v -34 -31 0
v -33 -31 0
v -31 -32 0
v -32 -32 0
v -32 -31 0
v -31 -31 0
v -29 -32 0
v -30 -32 0
v -30 -31 0
v -29 -31 0
v -45 -33 0
v -46 -33 0
v -46 -32 0
v -45 -32 0
v -42 -33 0
v -43 -33 0
v -43 -32 0
v -42 -32 0
v -40 -33 0
v -41 -33 0
v -41 -32 0
v -40 -32 0
v -25 -33 0
v -26 -33 0
v -26 -32 0
v -25 -32 0
v -14 -33 0
v -15 -33 0
v -15 -32 0
v -14 -32 0
v -8 -33 0
v -9 -33 0
v -9 -32 0
v -8 -32 0
v -34 -34 0
v -35 -34 0
v -35 -33 0
v -34 -33 0
v -19 -34 0
v -20 -34 0
v -20 -33 0
v -19 -33 0
v -38 -35 0
v -39 -35 0
v -39 -34 0
v -38 -34 0
v -33 -35 0
v -34 -35 0
v -34 -34 0
v -33 -34 0
v -30 -35 0
v -31 -35 0
v -31 -34 0
v -30 -34 0
v -25 -35 0
v -26 -35 0
v -26 -34 0
v -25 -34 0
v -21 -35 0
v -22 -35 0
v -22 -34 0
v -21 -34 0
v -15 -35 0
v -16 -35 0
v -16 -34 0
v -15 -34 0
v -11 -35 0
v -12 -35 0
v -12 -34 0
v -11 -34 0
v -35 -36 0
v -36 -36 0
v -36 -35 0
v -35 -35 0
v -18 -36 0
v -19 -36 0
v -19 -35 0
v -18 -35 0
v -9 -36 0
v -10 -36 0
v -10 -35 0
v -9 -35 0
v -4 -36 0
v -5 -36 0
v -5 -35 0
v -4 -35 0
v -43 -37 0
v -44 -37 0
v -44 -36 0
v -43 -36 0
v -21 -37 0
v -22 -37 0
v -22 -36 0
v -21 -36 0
v -20 -37 0
v -21 -37 0
v -21 -36 0
v -20 -36 0
v -17 -37 0
v -18 -37 0
v -18 -36 0
v -17 -36 0
v -2 -37 0
v -3 -37 0
v -3 -36 0
v -2 -36 0
v -38 -38 0
v -39 -38 0
v -39 -37 0
v -38 -37 0
v -29 -38 0
v -30 -38 0
v -30 -37 0
v -29 -37 0
v -9 -38 0
v -10 -38 0
v -10 -37 0
v -9 -37 0
v -6 -38 0
v -7 -38 0
v -7 -37 0
v -6 -37 0
v -44 -39 0
v -45 -39 0
v -45 -38 0
v -44 -38 0
v -31 -39 0
v -32 -39 0
v -32 -38 0
v -31 -38 0
v -24 -39 0
v -25 -39 0
v -25 -38 0
v -24 -38 0
v -23 -39 0
v -24 -39 0
v -24 -38 0
v -23 -38 0
v -19 -39 0
v -20 -39 0
v -20 -38 0
v -19 -38 0
v -39 -40 0
v -40 -40 0
v -40 -39 0
v -39 -39 0
v -31 -40 0
v -32 -40 0
v -32 -39 0
v -31 -39 0
v -4 -40 0
v -5 -40 0
v -5 -39 0
v -4 -39 0
v -41 -41 0
v -42 -41 0
v -42 -40 0
v -41 -40 0
v -38 -41 0
v -39 -41 0
v -39 -40 0
v -38 -40 0
v -27 -41 0
v -28 -41 0
v -28 -40 0
v -27 -40 0
v -21 -41 0
v -22 -41 0
v -22 -40 0
v -21 -40 0
v -14 -41 0
v -15 -41 0
v -15 -40 0
v -14 -40 0
v -43 -42 0
v -44 -42 0
v -44 -41 0
v -43 -41 0
v -42 -42 0
v -43 -42 0
v -43 -41 0
v -42 -41 0
v -41 -42 0
v -42 -42 0
v -42 -41 0
v -41 -41 0
v -37 -42 0
v -38 -42 0
v -38 -41 0
v -37 -41 0
v -33 -42 0
v -34 -42 0
v -34 -41 0
v -33 -41 0
v -24 -42 0
v -25 -42 0
v -25 -41 0
v -24 -41 0
v -23 -42 0
v -24 -42 0
v -24 -41 0
v -23 -41 0
v -17 -42 0
v -18 -42 0
v -18 -41 0
v -17 -41 0
v -15 -42 0
v -16 -42 0
v -16 -41 0
v -15 -41 0
v -8 -42 0
v -9 -42 0
v -9 -41 0
v -8 -41 0
v -29 -43 0
v -30 -43 0
v -30 -42 0
v -29 -42 0
v -19 -43 0
v -20 -43 0
v -20 -42 0
v -19 -42 0
v -18 -43 0
v -19 -43 0
v -19 -42 0
v -18 -42 0
v -9 -43 0
v -10 -43 0
v -10 -42 0
v -9 -42 0
v -5 -43 0
v -6 -43 0
v -6 -42 0
v -5 -42 0
v -30 -44 0
v -31 -44 0
v -31 -43 0
v -30 -43 0
v -41 -45 0
v -42 -45 0
v -42 -44 0
v -41 -44 0
v -25 -45 0
v -26 -45 0
v -26 -44 0
v -25 -44 0
v -19 -45 0
v -20 -45 0
v -20 -44 0
v -19 -44 0
v -18 -45 0
v -19 -45 0
v -19 -44 0
v -18 -44 0
v -6 -45 0
v -7 -45 0
v -7 -44 0
v -6 -44 0
v -24 -46 0
v -25 -46 0
v -25 -45 0
v -24 -45 0
v -11 -46 0
v -12 -46 0
v -12 -45 0
v -11 -45 0
v -29 -47 0
v -30 -47 0
v -30 -46 0
v -29 -46 0
v -10 -47 0
v -11 -47 0
v -11 -46 0
v -10 -46 0

# Texture cooridinates (Count = 4)
vt 0 0
vt 1 0
vt 1 1
vt 0 1

# Normal
vn 0 0 -1

# Mesh description
g untitled_mesh_0020

# Faces
f 1/1/1 2/2/1 3/3/1 4/4/1
f 5/1/1 6/2/1 7/3/1 8/4/1
f 9/1/1 10/2/1 11/3/1 12/4/1
f 13/1/1 14/2/1 15/3/1 16/4/1
f 17/1/1 18/2/1 19/3/1 20/4/1
f 21/1/1 22/2/1 23/3/1 24/4/1
f 25/1/1 26/2/1 27/3/1 28/4/1
f 29/1/1 30/2/1 31/3/1 32/4/1
f 33/1/1 34/2/1 35/3/1 36/4/1
f 37/1/1 38/2/1 39/3/1 40/4/1
f 41/1/1 42/2/1 43/3/1 44/4/1
f 45/1/1 46/2/1 47/3/1 48/4/1
f 49/1/1 50/2/1 51/3/1 52/4/1
f 53/1/1 54/2/1 55/3/1 56/4/1
f 57/1/1 58/2/1 59/3/1 60/4/1
f 61/1/1 62/2/1 63/3/1 64/4/1
f 65/1/1 66/2/1 67/3/1 68/4/1
f 69/1/1 70/2/1 71/3/1 72/4/1
f 73/1/1 74/2/1 75/3/1 76/4/1
f 77/1/1 78/2/1 79/3/1 80/4/1
f 81/1/1 82/2/1 83/3/1 84/4/1
f 85/1/1 86/2/1 87/3/1 88/4/1
f 89/1/1 90/2/1 91/3/1 92/4/1
f 93/1/1 94/2/1 95/3/1 96/4/1
f 97/1/1 98/2/1 99/3/1 100/4/1
f 101/1/1 102/2/1 103/3/1 104/4/1
f 105/1/1 106/2/1 107/3/1 108/4/1
f 109/1/1 110/2/1 111/3/1 112/4/1
f 113/1/1 114/2/1 115/3/1 116/4/1
f 117/1/1 118/2/1 119/3/1 120/4/1
f 121/1/1 122/2/1 123/3/1 124/4/1
f 125/1/1 126/2/1 127/3/1 128/4/1
f 129/1/1 130/2/1 131/3/1 132/4/1
f 133/1/1 134/2/1 135/3/1 136/4/1
f 137/1/1 138/2/1 139/3/1 140/4/1
f 141/1/1 142/2/1 143/3/1 144/4/1
f 145/1/1 146/2/1 147/3/1 148/4/1
f 149/1/1 150/2/1 151/3/1 152/4/1
f 153/1/1 154/2/1 155/3/1 156/4/1
f 157/1/1 158/2/1 159/3/1 160/4/1
f 161/1/1 162/2/1 163/3/1 164/4/1
f 165/1/1 166/2/1 167/3/1 168/4/1
f 169/1/1 170/2/1 171/3/1 172/4/1
f 173/1/1 174/2/1 175/3/1 176/4/1
f 177/1/1 178/2/1 179/3/1 180/4/1
f 181/1/1 182/2/1 183/3/1 184/4/1
f 185/1/1 186/2/1 187/3/1 188/4/1
f 189/1/1 190/2/1 191/3/1 192/4/1
f 193/1/1 194/2/1 195/3/1 196/4/1
f 197/1/1 198/2/1 199/3/1 200/4/1
f 201/1/1 202/2/1 203/3/1 204/4/1
f 205/1/1 206/2/1 207/3/1 208/4/1
f 209/1/1 210/2/1 211/3/1 212/4/1
f 213/1/1 214/2/1 215/3/1 216/4/1
f 217/1/1 218/2/1 219/3/1 220/4/1
f 221/1/1 222/2/1 223/3/1 224/4/1
f 225/1/1 226/2/1 227/3/1 228/4/1
f 229/1/1 230/2/1 231/3/1 232/4/1
f 233/1/1 234/2/1 235/3/1 236/4/1
f 237/1/1 238/2/1 239/3/1 240/4/1
f 241/1/1 242/2/1 243/3/1 244/4/1
f 245/1/1 246/2/1 247/3/1 248/4/1
f 249/1/1 250/2/1 251/3/1 252/4/1
f 253/1/1 254/2/1 255/3/1 256/4/1
f 257/1/1 258/2/1 259/3/1 260/4/1
f 261/1/1 262/2/1 263/3/1 264/4/1
f 265/1/1 266/2/1 267/3/1 268/4/1
f 269/1/1 270/2/1 271/3/1 272/4/1
f 273/1/1 274/2/1 275/3/1 276/4/1
f 277/1/1 278/2/1 279/3/1 280/4/1
f 281/1/1 282/2/1 283/3/1 284/4/1
f 285/1/1 286/2/1 287/3/1 288/4/1
f 289/1/1 290/2/1 291/3/1 292/4/1
f 293/1/1 294/2/1 295/3/1 296/4/1
f 297/1/1 298/2/1 299/3/1 300/4/1
f 301/1/1 302/2/1 303/3/1 304/4/1
f 305/1/1 306/2/1 307/3/1 308/4/1
f 309/1/1 310/2/1 311/3/1 312/4/1
f 313/1/1 314/2/1 315/3/1 316/4/1
f 317/1/1 318/2/1 319/3/1 320/4/1
f 321/1/1 322/2/1 323/3/1 324/4/1
f 325/1/1 326/2/1 327/3/1 328/4/1
f 329/1/1 330/2/1 331/3/1 332/4/1
f 333/1/1 334/2/1 335/3/1 336/4/1
f 337/1/1 338/2/1 339/3/1 340/4/1
f 341/1/1 342/2/1 343/3/1 344/4/1
f 345/1/1 346/2/1 347/3/1 348/4/1
f 349/1/1 350/2/1 351/3/1 352/4/1
f 353/1/1 354/2/1 355/3/1 356/4/1
f 357/1/1 358/2/1 359/3/1 360/4/1
f 361/1/1 362/2/1 363/3/1 364/4/1
f 365/1/1 366/2/1 367/3/1 368/4/1
f 369/1/1 370/2/1 371/3/1 372/4/1
f 373/1/1 374/2/1 375/3/1 376/4/1
f 377/1/1 378/2/1 379/3/1 380/4/1
f 381/1/1 382/2/1 383/3/1 384/4/1
f 385/1/1 386/2/1 387/3/1 388/4/1
f 389/1/1 390/2/1 391/3/1 392/4/1
f 393/1/1 394/2/1 395/3/1 396/4/1
f 397/1/1 398/2/1 399/3/1 400/4/1
f 401/1/1 402/2/1 403/3/1 404/4/1
f 405/1/1 406/2/1 407/3/1 408/4/1
f 409/1/1 410/2/1 411/3/1 412/4/1
f 413/1/1 414/2/1 415/3/1 416/4/1
f 417/1/1 418/2/1 419/3/1 420/4/1
f 421/1/1 422/2/1 423/3/1 424/4/1
f 425/1/1 426/2/1 427/3/1 428/4/1
f 429/1/1 430/2/1 431/3/1 432/4/1
f 433/1/1 434/2/1 435/3/1 436/4/1
f 437/1/1 438/2/1 439/3/1 440/4/1
f 441/1/1 442/2/1 443/3/1 444/4/1
f 445/1/1 446/2/1 447/3/1 448/4/1
f 449/1/1 450/2/1 451/3/1 452/4/1
f 453/1/1 454/2/1 455/3/1 456/4/1
f 457/1/1 458/2/1 459/3/1 460/4/1
f 461/1/1 462/2/1 463/3/1 464/4/1
f 465/1/1 466/2/1 467/3/1 468/4/1
f 469/1/1 470/2/1 471/3/1 472/4/1
f 473/1/1 474/2/1 475/3/1 476/4/1
f 477/1/1 478/2/1 479/3/1 480/4/1
f 481/1/1 482/2/1 483/3/1 484/4/1
f 485/1/1 486/2/1 487/3/1 488/4/1
f 489/1/1 490/2/1 491/3/1 492/4/1
f 493/1/1 494/2/1 495/3/1 496/4/1
f 497/1/1 498/2/1 499/3/1 500/4/1
f 501/1/1 502/2/1 503/3/1 504/4/1
f 505/1/1 506/2/1 507/3/1 508/4/1
f 509/1/1 510/2/1 511/3/1 512/4/1
f 513/1/1 514/2/1 515/3/1 516/4/1
f 517/1/1 518/2/1 519/3/1 520/4/1
f 521/1/1 522/2/1 523/3/1 524/4/1
f 525/1/1 526/2/1 527/3/1 528/4/1
f 529/1/1 530/2/1 531/3/1 532/4/1
f 533/1/1 534/2/1 535/3/1 536/4/1
f 537/1/1 538/2/1 539/3/1 540/4/1
f 541/1/1 542/2/1 543/3/1 544/4/1
f 545/1/1 546/2/1 547/3/1 548/4/1
f 549/1/1 550/2/1 551/3/1 552/4/1
f 553/1/1 554/2/1 555/3/1 556/4/1
f 557/1/1 558/2/1 559/3/1 560/4/1
f 561/1/1 562/2/1 563/3/1 564/4/1
f 565/1/1 566/2/1 567/3/1 568/4/1
f 569/1/1 570/2/1 571/3/1 572/4/1
f 573/1/1 574/2/1 575/3/1 576/4/1
f 577/1/1 578/2/1 579/3/1 580/4/1
f 581/1/1 582/2/1 583/3/1 584/4/1
f 585/1/1 586/2/1 587/3/1 588/4/1
f 589/1/1 590/2/1 591/3/1 592/4/1
f 593/1/1 594/2/1 595/3/1 596/4/1
f 597/1/1 598/2/1 599/3/1 600/4/1
f 601/1/1 602/2/1 603/3/1 604/4/1
f 605/1/1 606/2/1 607/3/1 608/4/1
f 609/1/1 610/2/1 611/3/1 612/4/1
f 613/1/1 614/2/1 615/3/1 616/4/1
f 617/1/1 618/2/1 619/3/1 620/4/1
f 621/1/1 622/2/1 623/3/1 624/4/1
f 625/1/1 626/2/1 627/3/1 628/4/1
f 629/1/1 630/2/1 631/3/1 632/4/1
f 633/1/1 634/2/1 635/3/1 636/4/1
f 637/1/1 638/2/1 639/3/1 640/4/1
f 641/1/1 642/2/1 643/3/1 644/4/1
f 645/1/1 646/2/1 647/3/1 648/4/1
f 649/1/1 650/2/1 651/3/1 652/4/1
f 653/1/1 654/2/1 655/3/1 656/4/1
f 657/1/1 658/2/1 659/3/1 660/4/1
f 661/1/1 662/2/1 663/3/1 664/4/1
f 665/1/1 666/2/1 667/3/1 668/4/1
f 669/1/1 670/2/1 671/3/1 672/4/1
f 673/1/1 674/2/1 675/3/1 676/4/1
f 677/1/1 678/2/1 679/3/1 680/4/1
f 681/1/1 682/2/1 683/3/1 684/4/1
f 685/1/1 686/2/1 687/3/1 688/4/1
f 689/1/1 690/2/1 691/3/1 692/4/1
f 693/1/1 694/2/1 695/3/1 696/4/1
f 697/1/1 698/2/1 699/3/1 700/4/1
f 701/1/1 702/2/1 703/3/1 704/4/1
f 705/1/1 706/2/1 707/3/1 708/4/1
f 709/1/1 710/2/1 711/3/1 712/4/1
f 713/1/1 714/2/1 715/3/1 716/4/1
f 717/1/1 718/2/1 719/3/1 720/4/1
f 721/1/1 722/2/1 723/3/1 724/4/1

